<?xml version="1.0" encoding="utf-8"?>
<!-- Generator: Adobe Illustrator 26.0.3, SVG Export Plug-In . SVG Version: 6.00 Build 0)  -->
<svg version="1.1" id="Layer_1" xmlns="http://www.w3.org/2000/svg" xmlns:xlink="http://www.w3.org/1999/xlink" x="0px" y="0px"
	 viewBox="0 0 400 300" enable-background="new 0 0 400 300" xml:space="preserve">
<g>
	<path fill="#0093E5" d="M143.82,33.81l-4.37,8.73l-3.79-1.2c-8.21-2.6-17.36-2.75-26.46-0.47c-32.33,8.16-47.72,45.8-30.3,74.13
		c4.52,7.33,13.72,15.91,20.12,18.72c0.88,0.42,1.61,0.88,1.61,1.14c0,0.21-0.93,3.12-2.08,6.45c-3.53,10.24-4.73,17.05-5.04,28.85
		c-0.21,6.65-0.05,12.06,0.36,15.28c0.68,5.46,2.91,15.23,4.63,20.17c0.62,1.72,1.04,3.12,0.99,3.17c-0.1,0.05-4.11,1.77-8.99,3.9
		c-4.83,2.08-8.89,3.85-8.99,3.9c-0.26,0.21,42.06,16.95,43.15,17.05c0.83,0.1,2.34-3.28,9.51-21.42
		c4.73-11.85,8.47-21.63,8.37-21.78c-0.1-0.1-3.79,1.35-8.21,3.28c-4.37,1.92-8.21,3.59-8.58,3.74c-0.88,0.36-3.07-7.02-4.11-13.93
		c-1.51-10.4-0.42-22.77,2.91-32.7c6.03-18.04,20.33-34.05,37.48-42.06c9.51-4.42,17-6.24,27.76-6.6
		c13.05-0.52,22.66,1.56,34.31,7.33c8.06,4,14.09,8.42,20.12,14.76c10.13,10.61,16.68,23.81,18.92,38.16
		c1.04,6.34,0.73,19.91-0.52,25.58c-1.97,8.89-5.87,17.99-10.81,25.47c-1.51,2.29-5.41,6.86-8.73,10.19
		c-8.89,9.05-17.41,14.3-29.27,18.09c-10.14,3.22-8.16,3.17-80.79,3.17H66.83v14.04v14.04h63.84c37.95,0,66.23-0.21,69.77-0.52
		c40.08-3.48,73.61-29.89,86.24-67.84c11.75-35.3,2.65-74.24-23.5-100.69c-15.54-15.75-34.94-25.58-56.72-28.75
		c-6.6-0.93-20.43-1.09-26.56-0.26c-11.12,1.56-21.99,4.89-31.5,9.62C137.53,90,129.79,95.72,121,104.76
		c-2.96,3.01-5.67,5.51-5.98,5.51c-1.46,0-6.03-2.65-8.53-4.89c-1.87-1.72-3.33-3.69-4.68-6.45c-1.77-3.54-1.97-4.42-2.13-8.84
		c-0.15-4.05,0-5.41,0.93-8.06c3.22-8.79,10.55-14.35,19.55-14.82c2.39-0.15,4.89-0.1,5.61,0.1l1.35,0.31l-4.21,8.37
		c-2.29,4.63-4.05,8.47-3.95,8.58c0.26,0.26,43.56-14.3,44.19-14.87c0.36-0.31-13.88-43.41-14.66-44.29
		C148.29,25.23,146.22,28.97,143.82,33.81z"/>
	<path fill="#D6D6D6" d="M272.02,248.82c-6.81,7.43-19.5,17.1-28.49,21.62c-2.29,1.09-4.11,2.13-4.11,2.29s21.05,0.26,46.79,0.26
		H333v-14.04v-14.04h-28.7h-28.75L272.02,248.82z"/>
</g>
</svg>
