<svg version="1.1" id="Layer_1" xmlns="http://www.w3.org/2000/svg" xmlns:xlink="http://www.w3.org/1999/xlink" x="0px" y="0px"
	 viewBox="0 0 400 300" enable-background="new 0 0 400 300" xml:space="preserve">
<polygon id="line2" fill="none" stroke="#9B1F57" stroke-width="3" stroke-linecap="round" stroke-linejoin="round" stroke-miterlimit="10" points="
	200.5,32.5 352.5,116.5 199.5,200.5 47.5,116.5 "/>
<polygon id="line1" fill="none" stroke="#9B1F57" stroke-width="3" stroke-linecap="round" stroke-linejoin="round" stroke-miterlimit="10" points="
	352.5,181.5 199.5,265.5 47.5,181.5 200.5,97.5 "/>
<polygon id="line3" fill="none" stroke="#9B1F57" stroke-width="3" stroke-linecap="round" stroke-linejoin="round" stroke-miterlimit="10" points="
	199.5,200.5 199.5,265.5 352.5,181.5 352.5,116.5 "/>
<polygon id="line4" fill="none" stroke="#9B1F57" stroke-width="3" stroke-linecap="round" stroke-linejoin="round" stroke-miterlimit="10" points="
	47.5,116.5 199.5,200.5 199.5,265.5 47.5,181.5 "/>
<polygon id="line5" fill="none" stroke="#9B1F57" stroke-width="3" stroke-linecap="round" stroke-linejoin="round" stroke-miterlimit="10" points="
	200.5,32.5 200.5,97.5 47.5,181.5 47.5,116.5 "/>
<polygon id="line6" fill="none" stroke="#9B1F57" stroke-width="3" stroke-linecap="round" stroke-linejoin="round" stroke-miterlimit="10" points="
	352.5,116.5 352.5,181.5 200.5,97.5 200.5,32.5 "/>
<polygon id="shape1" fill="#7A1844" points="47.5,116.5 47.5,181.5 199.5,265.5 199.5,200.5 "/>
<polygon id="shape2" fill="#E32E80" points="199.5,200.5 199.5,265.5 352.5,181.5 352.5,116.5 "/>
<polygon id="shape3" fill="#9B1F57" points="199.5,200.5 352.5,116.5 200.5,32.5 47.5,116.5 "/>
</svg>
