<?xml version="1.0" encoding="utf-8"?>
<!-- Generator: Adobe Illustrator 22.0.1, SVG Export Plug-In . SVG Version: 6.00 Build 0)  -->
<svg version="1.1" id="Layer_1" xmlns="http://www.w3.org/2000/svg" xmlns:xlink="http://www.w3.org/1999/xlink" x="0px" y="0px"
	 viewBox="0 0 121.8 118.8" style="enable-background:new 0 0 121.8 118.8;" xml:space="preserve">
<style type="text/css">
	.st0{fill:url(#Path_9_1_);}
	.st1{fill:#FF7F18;}
</style>
<radialGradient id="Path_9_1_" cx="76.4121" cy="46.0357" r="56.6081" gradientTransform="matrix(0.973 0 0 -0.973 -13.444 104.1847)" gradientUnits="userSpaceOnUse">
	<stop  offset="0" style="stop-color:#423325;stop-opacity:0.98"/>
	<stop  offset="1" style="stop-color:#1C0A00"/>
</radialGradient>
<path id="Path_9" class="st0" d="M5.1,5.1h111.7v108.6H5.1V5.1z"/>
<path id="Path_10" class="st1" d="M5.1,5.1h111.7v108.6H5.1V5.1z M0,118.8h121.8V0H0V118.8z M79.8,42.4c0-0.4,0.1-0.6,0.6-0.6h8
	c0.4,0,0.6,0.1,0.6,0.6v40.1c0,0.4-0.1,0.6-0.6,0.6h-7.9c-0.5,0-0.7-0.2-0.7-0.7L79.8,42.4L79.8,42.4z M79.2,30.8
	c0-2.9,2.3-5.2,5.2-5.2c2.9,0,5.2,2.3,5.2,5.2c0,3.3-2.2,5.2-5.3,5.2C81.4,36,79.2,34.2,79.2,30.8z M56.4,59
	c-1.4-5.6-4.8-17.9-6-23.9h-0.1c-1.1,5.9-3.8,16-5.9,23.9H56.4z M42.3,67.3l-4,15.2c-0.1,0.4-0.2,0.5-0.8,0.5h-7.5
	c-0.5,0-0.6-0.1-0.5-0.8L44,31.8c0.4-1.4,0.5-2.8,0.5-4.2c0-0.4,0.1-0.5,0.4-0.5h10.7c0.4,0,0.5,0.1,0.6,0.5l16.1,54.8
	c0.1,0.4,0,0.7-0.4,0.7h-8.4c-0.4,0-0.7-0.1-0.8-0.5l-4.2-15.3H42.3z"/>
</svg>
