<?xml version="1.0" encoding="utf-8"?>
<!-- Generator: Adobe Illustrator 22.0.1, SVG Export Plug-In . SVG Version: 6.00 Build 0)  -->
<svg version="1.1" id="Layer_1" xmlns="http://www.w3.org/2000/svg" xmlns:xlink="http://www.w3.org/1999/xlink" x="0px" y="0px"
	 viewBox="0 0 147 118.8" style="enable-background:new 0 0 147 118.8;" xml:space="preserve">
<style type="text/css">
	.st0{fill:#2E001E;}
	.st1{fill:#FF2BC2;}
</style>
<path id="bg" class="st0" d="M17.7,5.1h111.7v108.6H17.7V5.1z"/>
<path id="outline" class="st1" d="M12.6,0v118.8h121.8V0H12.6z M17.7,5.1h111.7v108.6H17.7V5.1z"/>
<path id="d" class="st1" d="M110.3,75V28.6c0-0.3-0.1-0.4-0.5-0.4h-8.2c-0.3,0-0.5,0.2-0.5,0.5v13.2c-0.9-0.1-1.8-0.1-2.6-0.1
	c-12.5,0-20.1,9.2-20.1,21.1l0,0c0,13.8,7.9,20.6,18.9,20.6c4.5,0,8.9-1,13-2.9c0.3-0.2,0.3-0.2,0.3-0.6
	C110.3,78.4,110.2,76.7,110.3,75z M101,49.9V75c-1.1,0.4-2.3,0.6-3.5,0.6c-5.7,0-10.1-3.8-10.1-13.1c0-8.2,4.3-13.1,10.7-13.1
	C99.1,49.3,100.1,49.5,101,49.9L101,49.9L101,49.9z"/>
<path id="x" class="st1" d="M61,54.7l14.2,27.6c0.3,0.4,0.1,0.8-0.3,0.8h-8.8c-0.5,0.1-0.9-0.2-1.1-0.7c-3.3-6.7-6.5-13.7-10-20.9
	H55c-3,6.8-6.4,14.2-9.6,20.9c-0.2,0.4-0.5,0.6-0.9,0.6H36c-0.5,0-0.6-0.4-0.3-0.7l13.9-26.8L36.1,28.9c-0.2-0.2-0.2-0.5,0-0.6
	c0.1-0.1,0.2-0.1,0.3-0.1h8.7c0.5,0,0.8,0.1,0.9,0.6c3.2,6.7,6.4,13.4,9.5,20.2h0.1c2.9-6.7,6.2-13.5,9.3-20.1
	c0.3-0.4,0.4-0.7,0.9-0.7h8.2c0.4,0,0.6,0.3,0.3,0.8L61,54.7z"/>
</svg>
