<?xml version="1.0" encoding="utf-8"?>
<!-- Generator: Adobe Illustrator 22.0.1, SVG Export Plug-In . SVG Version: 6.00 Build 0)  -->
<svg version="1.1" id="Layer_1" xmlns="http://www.w3.org/2000/svg" xmlns:xlink="http://www.w3.org/1999/xlink" x="0px" y="0px"
	 viewBox="0 0 147 118.8" style="enable-background:new 0 0 147 118.8;" xml:space="preserve">
<style type="text/css">
	.st0{fill:url(#Path_12_1_);}
	.st1{fill:#FF408C;}
</style>
<radialGradient id="Path_12_1_" cx="-17.5617" cy="-65.5172" r="56.6079" gradientTransform="matrix(0.973 0 0 -0.973 90.576 -4.3563)" gradientUnits="userSpaceOnUse">
	<stop  offset="0" style="stop-color:#4B2B36;stop-opacity:0.98"/>
	<stop  offset="1" style="stop-color:#250012"/>
</radialGradient>
<path id="Path_12" class="st0" d="M17.7,5.1h111.7v108.6H17.7V5.1z"/>
<path id="Path_13" class="st1" d="M17.7,5.1h111.7v108.6H17.7V5.1z M12.6,118.8h121.8V0H12.6L12.6,118.8z M89.7,49.4
	c-1-0.4-2-0.6-3-0.5c-6.5,0-11.1,5-11.1,13.4c0,9.5,4.7,13.4,10.5,13.4c1.2,0,2.5-0.2,3.6-0.6L89.7,49.4L89.7,49.4z M87,41.1
	c0.9,0,1.8,0,2.7,0.1V27.7c0-0.3,0.2-0.5,0.4-0.5c0,0,0.1,0,0.1,0h8.2c0.4,0,0.5,0.1,0.5,0.4V75c0,1.7,0.1,3.4,0.2,5.1
	c0,0.4-0.1,0.4-0.5,0.6c-4.2,2-8.7,3-13.3,3c-11.2,0-19.2-7-19.2-21.1C66.1,50.5,74.1,41.1,87,41.1L87,41.1z M57.2,82.3
	c0,0.5-0.1,0.7-0.7,0.7h-7.8c-0.5,0-0.7-0.2-0.7-0.7V27.8c0-0.5,0.2-0.7,0.7-0.7h7.9c0.4,0,0.6,0.1,0.6,0.6L57.2,82.3L57.2,82.3z"/>
</svg>
