<?xml version="1.0" encoding="utf-8"?>
<!-- Generator: Adobe Illustrator 22.0.1, SVG Export Plug-In . SVG Version: 6.00 Build 0)  -->
<svg version="1.1" id="Layer_1" xmlns="http://www.w3.org/2000/svg" xmlns:xlink="http://www.w3.org/1999/xlink" x="0px" y="0px"
	 viewBox="0 0 147 118.8" style="enable-background:new 0 0 147 118.8;" xml:space="preserve">
<style type="text/css">
	.st0{fill:#26292E;}
	.st1{fill:#8BCEF2;}
</style>
<path id="shutter1" class="st0" d="M120.3,22.4c12.8,16.7,16,35.1,10.3,55.5c-10.8-30.1-33.5-41.6-64.4-41.1
	C82.1,20.7,101,20.6,120.3,22.4z"/>
<path id="shutter2" class="st0" d="M87.3,117.6c8.8-11.8,15.4-24.3,15-39.6C102,66,97,55.3,92,44.7c-0.4-0.8-0.8-1.7-1.3-2.8
	c21.1,5.4,30.7,21.7,38.8,39.3c-7.8,19.4-22.3,31-42,36.6C87.5,117.7,87.4,117.7,87.3,117.6z"/>
<path id="shutter3" class="st0" d="M29,98.7c31.6,6.3,53.2-7.3,68.6-34.1c5.7,21.8-4,38.1-15.5,53.8C59.6,120.5,44.9,114.2,29,98.7z
	"/>
<path id="shutter4" class="st0" d="M16.7,40.6C27,70.8,49.5,82.7,80.1,82.7c-7.1,8-17,12.9-27.7,13.7c-8.5,0.7-17.3,0-25.9-0.1
	c-0.4,0-0.8-0.3-1-0.6C13.7,78.9,10.7,60.7,16.7,40.6z"/>
<path id="shutter6" class="st0" d="M64.7,0.5c20.9-2.4,38.3,4.3,53,19.6c-31.4-6.2-52.9,7.4-68.4,34.1C43.6,32.4,53.3,16.1,64.7,0.5
	z"/>
<path id="shutter7" class="st0" d="M56.2,76.9c-5.8-2.8-12.2-4.7-17.2-8.5c-10.4-7.8-16.4-19.2-21.4-30.7C25.6,18.3,40,6.5,58.4,1.6
	C54.9,9,50,17.1,47,25.7c-4.8,14.1-1.7,27.9,4.6,41C53.3,70.1,54.7,73.5,56.2,76.9L56.2,76.9z"/>
<path id="box" class="st1" d="M88,41c-8-1-16-1.9-23.9-2.8c-4.8,6.3-9.5,12.5-14.2,18.7c3.5,7.4,6.9,14.7,10.4,22
	c7.4,0.8,14.6,1.6,21.9,2.4c5-6.6,9.9-13.1,14.9-19.6C94,54.7,91,47.9,88,41z M64.9,40.2c6.8,0.8,13.8,1.6,21,2.5
	c-4.4,5.6-8.8,11-13.2,16.5c-6.7-0.8-13.3-1.6-20.3-2.5C56.6,51.1,60.7,45.7,64.9,40.2L64.9,40.2z M61.5,77.2
	c-2.9-6.2-5.8-12.3-8.8-18.6c6.6,0.8,12.9,1.6,19.5,2.4c2.7,5.9,5.4,11.9,8.3,18.2C74,78.5,67.8,77.9,61.5,77.2z M82.1,78.3
	c-2.7-6-5.4-11.9-8-17.7c4.4-5.5,8.7-10.9,13.2-16.5c2.6,5.9,5.1,11.6,7.6,17.4C90.7,66.9,86.5,72.5,82.1,78.3z"/>
</svg>
