<?xml version="1.0" encoding="utf-8"?>
<!-- Generator: Adobe Illustrator 22.0.1, SVG Export Plug-In . SVG Version: 6.00 Build 0)  -->
<svg version="1.1" id="Layer_1" xmlns="http://www.w3.org/2000/svg" xmlns:xlink="http://www.w3.org/1999/xlink" x="0px" y="0px"
	 viewBox="0 0 62 62" style="enable-background:new 0 0 62 62;" xml:space="preserve">
<style type="text/css">
	.st0{fill:none;stroke:#FF1554;stroke-width:3;}
	.st1{fill:none;}
	.st2{fill:none;stroke:#18FF92;stroke-width:3;}
	.st3{fill:none;stroke:#2D77E2;stroke-width:3;stroke-miterlimit:10;}
</style>
<g transform="translate(1 1)">
	<path class="st0" d="M0,16c19.9,8.2,35.8,24.1,44,44"/>
	<path class="st1" d="M4,0h54c1.1,0,2,0.9,2,2c0,0,0,0,0,0v56c0,1.1-0.9,2-2,2H2c-1.1,0-2-0.9-2-2c0,0,0,0,0,0V2c0-1.1,0.9-2,2-2H4z
		"/>
	<path class="st2" d="M30,10L30,10c11,0,20,9,20,20l0,0c0,11-9,20-20,20l0,0c-11,0-20-9-20-20l0,0C10,19,19,10,30,10z"/>
</g>
<rect x="1" y="1" class="st3" width="60" height="60"/>
</svg>
