<?xml version="1.0" encoding="utf-8"?>
<!-- Generator: Adobe Illustrator 22.0.1, SVG Export Plug-In . SVG Version: 6.00 Build 0)  -->
<svg version="1.1" id="Layer_1" xmlns="http://www.w3.org/2000/svg" xmlns:xlink="http://www.w3.org/1999/xlink" x="0px" y="0px"
	 viewBox="0 0 400 300" enable-background="new 0 0 400 300" xml:space="preserve">
<polygon fill="#E44E28" points="127.5,230.5 111.4,49.6 288.6,49.6 272.5,230.5 199.9,250.6 "/>
<polygon fill="#EC662B" points="200,235.3 258.6,219 272.4,64.4 200,64.4 "/>
<polygon fill="#EBEBEB" points="200,131.5 170.6,131.5 168.6,108.8 200,108.8 200,86.6 199.9,86.6 144.4,86.6 144.9,92.6 
	150.3,153.7 200,153.7 "/>
<polygon fill="#EBEBEB" points="200,189.1 199.9,189.2 175.2,182.5 173.6,164.8 161.6,164.8 151.3,164.8 154.4,199.6 199.9,212.3 
	200,212.2 "/>
<polygon fill="#FFFFFF" points="199.9,131.5 199.9,153.7 227.2,153.7 224.7,182.5 199.9,189.2 199.9,212.2 245.4,199.6 245.7,195.9 
	251,137.5 251.5,131.5 245.5,131.5 "/>
<polygon fill="#FFFFFF" points="199.9,86.6 199.9,100.4 199.9,108.8 199.9,108.8 253.4,108.8 253.4,108.8 253.5,108.8 254,103.8 
	255,92.6 255.5,86.6 "/>
<g>
</g>
<g>
</g>
<g>
</g>
<g>
</g>
<g>
</g>
<g>
</g>
</svg>
