<?xml version="1.0" encoding="utf-8"?>
<!-- Generator: Adobe Illustrator 22.0.1, SVG Export Plug-In . SVG Version: 6.00 Build 0)  -->
<svg version="1.1" id="Layer_1" xmlns="http://www.w3.org/2000/svg" xmlns:xlink="http://www.w3.org/1999/xlink" x="0px" y="0px"
	 viewBox="0 0 45 39.6" style="enable-background:new 0 0 45 39.6;" xml:space="preserve">
<path id="right" style="fill:#BFBFBF;" d="M36.2,37.2c0,0.4-0.2,0.7-0.4,1.1c-0.3,0.3-0.6,0.6-1,0.8c-0.5,0.2-1,0.4-1.5,0.5
	c-0.7,0.1-1.5,0.2-2.3,0.2c-0.7,0-1.5,0-2.2-0.2c-0.5-0.1-0.9-0.2-1.4-0.5c-0.3-0.2-0.5-0.4-0.6-0.8c-0.1-0.3-0.1-0.7-0.1-1.1
	l5.4-34.8c0-0.4,0.2-0.8,0.5-1.1C33,1,33.4,0.7,33.9,0.6c0.7-0.2,1.4-0.4,2.1-0.5C37,0,38,0,39.1,0c1.7-0.1,3.3,0.1,4.9,0.6
	c0.8,0.2,1.2,1,1,1.8L36.2,37.2z"/>
<path id="left" style="fill:#BFBFBF;" d="M9.5,37.2c0,0.4-0.2,0.7-0.4,1.1c-0.3,0.3-0.6,0.6-0.9,0.8c-0.5,0.2-1,0.4-1.6,0.5
	c-0.8,0.1-1.6,0.2-2.3,0.2c-0.7,0-1.5,0-2.2-0.2c-0.5-0.1-0.9-0.2-1.3-0.5c-0.3-0.2-0.5-0.4-0.6-0.8C0,37.9,0,37.6,0,37.2L5.4,2.4
	c0-0.4,0.2-0.8,0.5-1.1C6.3,1,6.7,0.7,7.2,0.6c0.7-0.2,1.4-0.4,2.1-0.5c1-0.1,2-0.2,3-0.2c1.7-0.1,3.3,0.1,4.9,0.6
	c0.8,0.2,1.2,1,1,1.8L9.5,37.2z"/>
</svg>
