<?xml version="1.0" encoding="utf-8"?>
<!-- Generator: Adobe Illustrator 26.1.0, SVG Export Plug-In . SVG Version: 6.00 Build 0)  -->
<svg version="1.1" xmlns="http://www.w3.org/2000/svg" xmlns:xlink="http://www.w3.org/1999/xlink" x="0px" y="0px"
	 viewBox="0 0 758.89 389.28" enable-background="new 0 0 758.89 389.28" xml:space="preserve">
<g id="Layer_1">
</g>
<g id="D_1_">
	<g id="D">
		<g>
			<linearGradient id="SVGID_1_" gradientUnits="userSpaceOnUse" x1="414.4032" y1="135.8294" x2="414.4032" y2="269.9576">
				<stop  offset="0" style="stop-color:#0F968D"/>
				<stop  offset="1" style="stop-color:#1EFDF5"/>
			</linearGradient>
			<path fill="url(#SVGID_1_)" d="M511.72,183.47L377.27,59.97c-6.39-5.89-11.65-4.68-20.34-4.68h-36.51c-4.12,0-6.82,1.1-7.63,3.09
				s0.39,4.66,3.36,7.51l121.58,117.01c3.03,2.92,4.63,6.7,4.52,10.66h74.02C516.31,189.8,514.71,186.22,511.72,183.47z"/>
		</g>
		<g>
			<g>
				<path fill="#13D6C9" d="M377.15,300.55c0,5.57-4.55,10.12-10.12,10.12h-48.28c-5.57,0-10.12-4.55-10.12-10.12V63.4
					c0-5.75,4.7-10.45,10.45-10.45h47.63c5.75,0,10.45,4.7,10.45,10.45V300.55z"/>
			</g>
		</g>
		<g>
			<g>
				
					<linearGradient id="SVGID_00000144329342240238047940000009138969229077534134_" gradientUnits="userSpaceOnUse" x1="411.0861" y1="135.4182" x2="411.0861" y2="269.4499">
					<stop  offset="0" style="stop-color:#0F968D"/>
					<stop  offset="1" style="stop-color:#1EFDF5"/>
				</linearGradient>
				<path fill="url(#SVGID_00000144329342240238047940000009138969229077534134_)" d="M442.24,193.11c0,0.07,0,0.13,0,0.2
					c-0.17,4.04-2.1,7.74-5.43,10.43L310.03,354.92c-3.15,2.55-4.6,5.02-3.97,6.79c0.08,0.23,0.19,0.44,0.34,0.64
					c0.99,1.37,3.49,2.14,7.02,2.14h54.85c5.18,0.15,9.26-4.45,16.02-9.92l126.78-151.19c3.22-2.61,5.07-6.17,5.19-10.03"/>
			</g>
		</g>
	</g>
</g>
<g id="K_1_">
	<g id="K">
		<path fill="#0F968D" d="M293.02,297.62c4.99,7.14,1.95,12.98-6.76,12.98H245.7c-8.71,0-19.93-5.84-24.93-12.98L53.71,66.16
			c-4.99-7.14-1.95-12.98,6.76-12.98h40.56c8.71,0,19.93,5.84,24.93,12.98L293.02,297.62z"/>
		<g>
			<g>
				<path fill="#13D6C9" d="M63.81,306.91c-8.63,0-15.62-6.99-15.62-15.62V66.38c0-7.59,6.15-13.74,13.74-13.74h36.59
					c7.59,0,13.74,6.15,13.74,13.74V291.3c0,8.63-6.99,15.62-15.62,15.62H63.81z"/>
			</g>
		</g>
		<g>
			<g>
				<path fill="#1BFDF4" d="M119.47,293.56c-4.27,7.6-14.89,13.77-23.61,13.72l-39.19-0.25c-8.71-0.05-12.35-6.31-8.08-13.91
					L217.04,38.68c4.27-7.6,14.89-13.77,23.61-13.72l39.19,0.25c8.71,0.05,12.35,6.31,8.08,13.91L119.47,293.56z"/>
			</g>
		</g>
	</g>
</g>
<g id="A">
	<rect x="524.44" y="655.64" fill="none" width="4" height="4"/>
</g>
<g id="Show">
	<g>
		<path fill="#C1C1C1" d="M514.9,327.64h-9.75v-12.61h9.75V327.64z"/>
		<path fill="#C1C1C1" d="M530.62,245.87h-16.77v-9.23h43.55v9.23h-16.77v81.77h-10.01V245.87z"/>
		<path fill="#C1C1C1" d="M596.66,286.04h-22.23v32.37h27.3v9.23h-37.44v-91h37.44v9.23h-27.3v31.07h22.23V286.04z"/>
		<path fill="#C1C1C1" d="M646.13,241.84c3.42,4.08,5.13,9.67,5.13,16.77v8.19h-9.62v-8.71c0-8.75-3.55-13.13-10.66-13.13
			c-3.55,0-6.22,1.15-8,3.45c-1.78,2.3-2.66,5.52-2.66,9.68v48.1c0,4.16,0.89,7.39,2.66,9.69c1.78,2.3,4.44,3.45,8,3.45
			c7.11,0,10.66-4.38,10.66-13.13v-11.83h9.62v11.31c0,7.11-1.71,12.7-5.13,16.77c-3.42,4.08-8.56,6.11-15.41,6.11
			c-6.76,0-11.85-2.04-15.27-6.11c-3.43-4.07-5.14-9.66-5.14-16.77v-47.06c0-7.11,1.71-12.7,5.14-16.77
			c3.42-4.07,8.51-6.11,15.27-6.11C637.57,235.73,642.7,237.76,646.13,241.84z"/>
		<path fill="#C1C1C1" d="M670.63,327.64h-10.14v-91h10.14v40.95h22.36v-40.95h10.14v91h-10.14v-40.95h-22.36V327.64z"/>
	</g>
	<g>
		<path fill="#0F968D" d="M296.34,188.18c0,6.92,0.6,14.4,1.05,16.59h-12.56c-0.6-1.69-1.05-5.31-1.24-9.96
			c-2.66,5.07-8.72,11.76-23.48,11.76c-17.93,0-25.59-11.67-25.59-23.24c0-16.98,13.33-24.74,35.94-24.74c5.29,0,10.13,0,12.98,0
			v-6.48c0-6.7-2.14-14.89-16.38-14.89c-12.71,0-14.85,6.3-16.23,12.24H238.1c1.01-10.48,7.49-22.59,29.35-22.54
			c18.59,0.05,28.88,7.63,28.88,24.92V188.18z M283.51,167.68c-2.42,0-8.21,0-12.31,0c-15.16,0-23.28,4.19-23.28,14.91
			c0,7.91,5.42,13.67,14.81,13.67c18.32,0,20.78-12.34,20.78-26.15V167.68z"/>
	</g>
</g>
<g id="non_rounded_d">
</g>
</svg>
