<?xml version="1.0" encoding="utf-8"?>
<!-- Generator: Adobe Illustrator 22.0.1, SVG Export Plug-In . SVG Version: 6.00 Build 0)  -->
<svg version="1.1" id="Layer_1" xmlns="http://www.w3.org/2000/svg" xmlns:xlink="http://www.w3.org/1999/xlink" x="0px" y="0px"
	 viewBox="0 0 25 25" enable-background="new 0 0 25 25" xml:space="preserve">
<path fill="#015A9C" d="M19.6,2.5c-3.1,7.4-6.3,14.8-9.4,22.2c-1.7-0.3-3.2-0.9-4.6-1.9c-2.3-1.6-4-3.7-4.8-6.4
	C-1.1,10.8,1.2,4.9,6.1,1.9C10.8-0.9,16.2-0.1,19.6,2.5z M7.1,12.8C7.1,12.8,7.1,12.8,7.1,12.8c0.5,0,1,0,1.5,0
	c0.8,0,1.2-0.4,1.3-1.2c0.1-0.7-0.3-1.3-1-1.4c-0.5-0.1-1.1,0-1.6,0c-0.2,0-0.4,0-0.6,0c0,1.5,0,3,0,4.6c0.1,0,0.3,0,0.4,0
	C7.1,14.1,7.1,13.5,7.1,12.8z M12.5,14.7c0-1.5,0-3,0-4.5c-0.1,0-0.3,0-0.4,0c0,1.5,0,3,0,4.5C12.3,14.7,12.4,14.7,12.5,14.7z"/>
<path fill="#015A9C" d="M10.7,24.7c1.6-3.8,3.2-7.6,4.8-11.4c0.7,0,1.4,0,2.1,0c0.2,0.5,0.4,0.9,0.6,1.4c0.1,0,0.3,0,0.5,0
	c-0.6-1.5-1.3-3-1.9-4.4c1.1-2.5,2.2-5,3.2-7.6c4,3,6.2,9,3.8,14.6C21.2,23.4,15.1,25.5,10.7,24.7z"/>
<path fill="#015A9C" d="M17.4,13c-0.6,0-1.2,0-1.8,0c0.3-0.7,0.6-1.4,0.9-2.1C16.8,11.6,17.1,12.3,17.4,13z"/>
<path fill="#015A9C" d="M7.1,12.4c0-0.6,0-1.2,0-1.8c0.3,0,0.5,0,0.8,0c0.3,0,0.6,0,0.8,0c0.5,0.1,0.7,0.4,0.7,0.9
	c0,0.5-0.3,0.8-0.8,0.9C8.2,12.4,7.6,12.4,7.1,12.4z"/>
</svg>
