<?xml version="1.0" encoding="utf-8"?>
<!-- Generator: Adobe Illustrator 22.0.1, SVG Export Plug-In . SVG Version: 6.00 Build 0)  -->
<svg version="1.1"
	 id="svg4400" inkscape:version="0.48.2 r9819" sodipodi:docname="New document 4" xmlns:cc="http://creativecommons.org/ns#" xmlns:dc="http://purl.org/dc/elements/1.1/" xmlns:inkscape="http://www.inkscape.org/namespaces/inkscape" xmlns:rdf="http://www.w3.org/1999/02/22-rdf-syntax-ns#" xmlns:sodipodi="http://sodipodi.sourceforge.net/DTD/sodipodi-0.dtd" xmlns:svg="http://www.w3.org/2000/svg"
	 xmlns="http://www.w3.org/2000/svg" xmlns:xlink="http://www.w3.org/1999/xlink" x="0px" y="0px" viewBox="0 0 62 23.2"
	 style="enable-background:new 0 0 62 23.2;" xml:space="preserve">
<path id="path3013" style="fill:#98002E;" d="M18.8,10.2c0,2-0.7,3.7-2.3,5.6V4.6C18,5.8,18.8,8,18.8,10.2 M20.8,10.1
	c0-2.8-1.5-5.9-3.9-7.7c-0.7-0.5-1.1-0.8-2.3-1.4v21.2h2v-3.6C19.8,15.2,20.8,13.1,20.8,10.1"/>
<path id="path3017" style="fill:#98002E;" d="M28.3,10.2c0,2-0.7,3.7-2.3,5.6V4.6C27.4,5.8,28.3,8,28.3,10.2 M30.7,22.1v-2
	c-1.7-0.4-2.8-1.3-3.6-2.9c2.5-2.8,3.2-4.3,3.2-7.2s-1.5-5.9-3.9-7.8c-0.7-0.5-1.1-0.8-2.3-1.4V22h2v-3C27,20.9,28.5,22,30.7,22.1"
	/>
<path id="path3021" style="fill:#98002E;" d="M38.5,22.1v-2h-3.3v-2.3h3.3v-2h-3.3v-12h3.3v-2h-5.2V22L38.5,22.1L38.5,22.1z"/>
<path id="path3025" style="fill:#98002E;" d="M47.9,3.8v-2h-6.7v2h2.3v18.3h2V3.8H47.9z"/>
<path id="path3057" style="fill:#98002E;" d="M55.9,5.6l1.6,4.8H62l-3.6,2.5l1.4,4.4l-3.9-2.6L52,17.2l1.4-4.4l-3.7-2.5h4.5
	L55.9,5.6z"/>
<path id="path3061" style="fill:#98002E;" d="M6.7,5.7l1.6,4.8h4.5L9.2,13l1.4,4.4l-3.9-2.6l-3.9,2.6L4.2,13l-3.7-2.5H5L6.7,5.7z"/>
</svg>
