<?xml version="1.0" encoding="utf-8"?>
<!-- Generator: Adobe Illustrator 22.0.1, SVG Export Plug-In . SVG Version: 6.00 Build 0)  -->
<svg version="1.1"
	 id="svg4400" inkscape:version="0.48.2 r9819" sodipodi:docname="New document 4" xmlns:cc="http://creativecommons.org/ns#" xmlns:dc="http://purl.org/dc/elements/1.1/" xmlns:inkscape="http://www.inkscape.org/namespaces/inkscape" xmlns:rdf="http://www.w3.org/1999/02/22-rdf-syntax-ns#" xmlns:sodipodi="http://sodipodi.sourceforge.net/DTD/sodipodi-0.dtd" xmlns:svg="http://www.w3.org/2000/svg"
	 xmlns="http://www.w3.org/2000/svg" xmlns:xlink="http://www.w3.org/1999/xlink" x="0px" y="0px" viewBox="0 0 170 23.2"
	 enable-background="new 0 0 170 23.2" xml:space="preserve">
<path id="path3013"  fill="#98002E" d="M29.4,10.2c0,2-0.7,3.7-2.3,5.6V4.6
	C28.5,5.8,29.4,8,29.4,10.2 M31.4,10.1c0-2.8-1.5-5.9-3.9-7.7c-0.7-0.5-1.1-0.8-2.3-1.4v21.2h2v-3.6C30.4,15.2,31.4,13.1,31.4,10.1"
	/>
<path id="path3017"  fill="#98002E" d="M38.8,10.2c0,2-0.7,3.7-2.3,5.6V4.6
	C37.9,5.8,38.8,8,38.8,10.2 M41.2,22.1v-2c-1.7-0.4-2.8-1.3-3.6-2.9c2.5-2.8,3.2-4.3,3.2-7.2c0-2.9-1.5-5.9-3.9-7.8
	c-0.7-0.5-1.1-0.8-2.3-1.4v21.2h2V19C37.6,20.9,39.1,22,41.2,22.1"/>
<path id="path3021"  fill="#98002E" d="M49,22.1v-2h-3.3v-2.3H49v-2h-3.3v-12H49v-2h-5.2v20.2H49z"
	/>
<path id="path3025"  fill="#98002E" d="M58.4,3.8v-2h-6.7v2H54v18.3h2V3.8H58.4z"/>
<path id="path3029"  fill="#98002E" d="M70.7,16.2h-2.1l1.1-5.6L70.7,16.2z M73.5,22L69.6,0.9
	L65.7,22h1.8l0.7-3.8H71l0.7,3.8C71.7,22,73.5,22,73.5,22z"/>
<path id="path3033"  fill="#98002E" d="M91.1,22V1.2l-4,5.7L83,1.2V22h2V8.1l2.1,2.8l2.1-2.8V22
	H91.1z"/>
<path id="path3037"  fill="#98002E" d="M99.9,16.2h-2.1l1.1-5.6L99.9,16.2z M102.8,22L98.8,0.9
	L94.9,22h1.8l0.7-3.8h2.8l0.7,3.8C100.9,22,102.8,22,102.8,22z"/>
<path id="path3041"  fill="#98002E" d="M113.3,22V1.9h-2v6.4l-4.7-6.8V22h2V8l2.7,4v10H113.3z"/>
<path id="path3045"  fill="#98002E" d="M124.5,18.6v-2.9h-3.8v2h1.8v0.9c0,1.1-0.5,1.8-1.4,1.8
	c-0.9,0-1.4-0.6-1.4-1.8V5.4c0-1.1,0.5-1.8,1.4-1.8c0.9,0,1.4,0.6,1.4,1.8v1.1h2V5.3c0-2.1-1.4-3.6-3.4-3.6c-2,0-3.4,1.5-3.4,3.6
	v13.3c0,2.1,1.4,3.6,3.4,3.6C123.1,22.2,124.5,20.7,124.5,18.6"/>
<path id="path3049"  fill="#98002E" d="M134,22v-2h-3.3v-2.3h3.3v-2h-3.3V3.8h3.3v-2h-5.2V22H134z"
	/>
<path id="path3053"  fill="#98002E" d="M142.9,10.2c0,2-0.7,3.7-2.2,5.6V4.7
	C142,5.9,142.9,8,142.9,10.2 M145.3,22V20c-1.6-0.4-2.8-1.3-3.6-2.8c2.5-2.8,3.1-4.3,3.1-7.1s-1.5-5.9-3.8-7.7
	c-0.7-0.5-1.1-0.8-2.3-1.4v20.9h1.9v-3.1C141.7,20.8,143.2,21.8,145.3,22"/>
<path id="path3057"  fill="#98002E" d="M157.1,5.6l1.6,4.8h4.5l-3.6,2.5l1.4,4.4l-3.9-2.6l-3.9,2.5
	l1.4-4.4l-3.7-2.5h4.5L157.1,5.6z"/>
<path id="path3061"  fill="#98002E" d="M12.9,5.7l1.6,4.8H19l-3.6,2.5l1.4,4.4l-3.9-2.6L9,17.4
	l1.4-4.4l-3.7-2.5h4.5L12.9,5.7z"/>
</svg>
