<?xml version="1.0" encoding="utf-8"?>
<!-- Generator: Adobe Illustrator 22.0.1, SVG Export Plug-In . SVG Version: 6.00 Build 0)  -->
<svg version="1.1"
	 id="svg1383" inkscape:version="0.92.0 r15299" sodipodi:docname="royal bank of scotland.svg" xmlns:cc="http://creativecommons.org/ns#" xmlns:dc="http://purl.org/dc/elements/1.1/" xmlns:inkscape="http://www.inkscape.org/namespaces/inkscape" xmlns:rdf="http://www.w3.org/1999/02/22-rdf-syntax-ns#" xmlns:sodipodi="http://sodipodi.sourceforge.net/DTD/sodipodi-0.dtd" xmlns:svg="http://www.w3.org/2000/svg"
	 xmlns="http://www.w3.org/2000/svg" xmlns:xlink="http://www.w3.org/1999/xlink" x="0px" y="0px" width="246px" height="213.4px"
	 viewBox="0 0 246 213.4" enable-background="new 0 0 246 213.4" xml:space="preserve">
<sodipodi:namedview  bordercolor="#666666" borderopacity="1.0" fit-margin-bottom="0" fit-margin-left="0" fit-margin-right="0" fit-margin-top="0" id="base" inkscape:current-layer="layer1" inkscape:cx="115.77433" inkscape:cy="31.199884" inkscape:document-units="mm" inkscape:pageopacity="0.0" inkscape:pageshadow="2" inkscape:window-height="744" inkscape:window-maximized="1" inkscape:window-width="1280" inkscape:window-x="-4" inkscape:window-y="-4" inkscape:zoom="3.8739157" pagecolor="#ffffff" showgrid="false" units="px">
	</sodipodi:namedview>
<g id="layer1" transform="translate(-63.106137,-172.81973)" inkscape:groupmode="layer" inkscape:label="Layer 1">
	<g id="g1607" transform="translate(0.13229178,-0.13228781)">
		<g id="g124" transform="matrix(0.35277777,0,0,-0.35277777,70.164515,178.45455)">
			<path id="path126" inkscape:connector-curvature="0" fill="#15366F" d="M303.7-95.5c-25-8.9-33.5-33.1-33.5-33.1
				c-3.4-8.9-12.3-15.6-22.3-15.6h-47.3c-13,0-23.8,10.8-23.8,23.8c0,13,8.9,23.4,23.8,23.4L238-97l-54.3,54.3
				c-9.3,9.3-9.3,24.2,0,33.4c9.3,9.3,24.2,9.3,33.5,0l54-53.8V-26c0,13,10.4,23.8,23.8,23.8c13.1,0,23.5-10.8,23.5-23.8v-47.2
				C318.6-83.2,312.6-92.5,303.7-95.5 M295.1-295.5c-13,0-23.5,8.6-23.1,23.4l0.1,37.7l-54.5-54.4c-9.3-9.3-24.6-9.3-33.5,0
				c-9.3,9.3-9.3,24.5,0,33.4l53.9,53.9h-37.1c-13.4,0-23.8,10.8-23.8,23.7c0,13,10.4,23.8,23.8,23.8h47.3c10.1,0,19-5.9,22.4-14.9
				c8.6-25.2,32.8-33.8,32.8-33.8c9.3-3.3,15.7-11.9,15.7-22.3V-272C319-285,308.5-295.5,295.1-295.5 M447.5-201l-37.6,0l54.4-54.3
				c9.3-9.3,9.3-24.1,0-33.4c-9.3-9.3-24.2-9.3-33.5,0l-54,53.9V-272c0-14.1-10.8-23.8-23.8-23.8c-13,0-23.9,10.8-23.9,23.8v47.2
				c0,10,6.3,19.3,15.3,22.3c24.9,8.5,33.5,33.1,33.5,33.1c3.4,8.9,12.3,15.6,22.4,15.6h47.3c13,0,23.8-10.8,23.8-23.8
				C471.3-190.6,461.6-201,447.5-201 M447.8-143.8h-47.3c-10.1,0-19.4,6-22.4,14.9C369.6-104,345-95.1,345-95.1
				c-8.9,3.4-15.7,11.9-15.7,22.3v47.2c0,13,10.8,23.4,23.9,23.4c13,0,23.5-9.7,23.5-23.4l0-37.8l54.4,54.5c9.3,9.3,24.2,9.3,33.5,0
				c9.3-9.3,9.3-24.5,0-33.8L411-96.2h36.9c13,0,23.8-10.8,23.8-23.8S460.9-143.8,447.8-143.8"/>
		</g>
		<g>
			<g id="g128" transform="matrix(0.35277777,0,0,-0.35277777,84.363679,177.08264)">
				<path id="path130" inkscape:connector-curvature="0" fill="#15366F" d="M40-400h1.3l21.2-33.9h18.8L63-406.4
					c-1.9,2.8-4.1,6.1-6.3,9c11,1.9,19.3,10.7,19.3,22.3c0,16.1-11.2,23.9-28.5,23.9c-9.1,0-16.4-0.1-22.6-0.5v-82.2H40V-400z
					 M40-363.9c1.5,0.2,3.7,0.3,5.9,0.3c9.5,0,14.2-5.5,14.2-13c0-7.3-5.6-12.4-14.7-12.4c-2.3,0-4.4,0.1-5.5,0.2V-363.9z"/>
			</g>
			<g id="g132" transform="matrix(0.35277777,0,0,-0.35277777,90.028478,175.11449)">
				<path id="path134" inkscape:connector-curvature="0" fill="#15366F" d="M96.5-380.4c-17.6,0-29.6-13-29.6-31.1
					c0-20.6,10.7-29.1,27.2-29.1c17.3,0,29.6,13,29.6,31.2C123.7-389.4,113.1-380.4,96.5-380.4 M95.2-427.9c-8.5,0-12.9,6-12.9,17.9
					c0,11.9,6.5,17,13.2,17c8.7,0,12.8-6.1,12.8-17.3C108.3-422,102.6-427.9,95.2-427.9"/>
			</g>
			<g id="g136" transform="matrix(0.35277777,0,0,-0.35277777,95.130809,179.98388)">
				<path id="path138" inkscape:connector-curvature="0" fill="#15366F" d="M147.4-428.9l23,61.2h-16l-6.9-19.7
					c-1.9-5.3-4.3-13.2-5.6-18.4h-0.1c-1.3,5.2-2.9,11-4.5,16l-7.8,22.1h-16.7l21.4-57.9l-1.9-5.1c-3.1-9.1-8.3-11.4-13.2-11.4
					c-2.4,0-5.1,0.5-7.3,1.2l-1.8-12.8c2.2-0.5,5.7-0.8,8.2-0.8C131.6-454.7,139.8-449,147.4-428.9"/>
			</g>
			<g id="g140" transform="matrix(0.35277777,0,0,-0.35277777,98.451859,179.81885)">
				<path id="path142" inkscape:connector-curvature="0" fill="#15366F" d="M180.5-427.3c8.2,0,15,4.1,18,10.2v-9h14.2
					c-0.3,4.8-0.5,10.3-0.5,14.9v23.9c0,12.9-5.4,20.4-23.3,20.4c-7.8,0-16.1-1.6-21.9-4l2.4-11.4c5.1,2.2,12.2,4,17.5,4
					c7.7,0,10.4-3.1,10.4-10.1v-2.1c-20.3,0-33.4-6.4-33.4-20.2C163.9-420.2,170-427.3,180.5-427.3 M197.3-400.4v-1.5
					c0-7-4.9-14-12.1-14c-4.3,0-7,3-7,6.8C178.3-404.1,182.3-400.4,197.3-400.4"/>
			</g>
			<path id="path144" inkscape:connector-curvature="0" fill="#15366F" d="M182.9,300.1h-5.3v30h5.3V300.1z"/>
			<g id="g154" transform="matrix(0.35277777,0,0,-0.35277777,110.10326,177.68821)">
				<path id="path156" inkscape:connector-curvature="0" fill="#15366F" d="M296.6-406c0,8.7-5.7,16.2-14.1,18v0.2
					c7.6,3,11.9,10.2,11.9,18c0,12.6-9.4,19.8-26.3,19.8c-9.6,0-19.5-0.2-26.1-0.6v-81.6c9.9,0,17.7-0.2,23-0.2
					C288-432.4,296.6-418.2,296.6-406 M257.1-362.3c2.4,0.1,5.2,0.2,8.5,0.2c9.2,0,12.7-4.3,12.7-10.2c0-7-4.7-11.6-15-11.6
					c-2.4,0-4.3,0-6.2,0.1V-362.3z M257.1-395.3c1.6,0.1,5.6,0.1,6.6,0.1c10.4,0,16.7-3.9,16.7-11.3c0-6.9-5-13.7-14.9-13.7
					c-2.8,0-6.5,0.2-8.4,0.4V-395.3z"/>
			</g>
			<g id="g158" transform="matrix(0.35277777,0,0,-0.35277777,110.78264,178.52782)">
				<path id="path160" inkscape:connector-curvature="0" fill="#15366F" d="M303.4-414.4c0-9.4,6.1-16.5,16.6-16.5
					c8.2,0,15,4.1,18,10.2v-9h14.2c-0.4,4.8-0.5,10.3-0.5,14.9v23.9c0,12.9-5.4,20.4-23.3,20.4c-7.8,0-16.1-1.6-21.9-4L309-386
					c5.1,2.2,12.2,4,17.5,4c7.7,0,10.4-3.1,10.4-10.1v-2.1C316.6-394.2,303.4-400.6,303.4-414.4 M336.8-405.5c0-7-4.9-14-12.1-14
					c-4.3,0-7,3-7,6.8c0,5,4.1,8.7,19.1,8.7V-405.5z"/>
			</g>
			<g id="g162" transform="matrix(0.35277777,0,0,-0.35277777,116.67477,177.54453)">
				<path id="path164" inkscape:connector-curvature="0" fill="#15366F" d="M362.1-404.6c0,10.1,5.9,18.6,13.4,18.6
					c5.6,0,7.2-3.6,7.2-9.6v-37.1h14.8v40.7c0,10.1-4.2,18.4-17.2,18.4c-8.9,0-15.3-4.2-19-10.4v9.2h-14.1v-57.9h14.9V-404.6z"/>
			</g>
			<path id="path168" inkscape:connector-curvature="0" fill="#15366F" d="M266.3,320.7l6.3,9.4h6.6l-8.1-11.1l7.6-9.3h-6.4l-6,7.5
				v-17.1H261v30h5.3L266.3,320.7z"/>
			<g id="g178" transform="matrix(0.35277777,0,0,-0.35277777,85.154501,184.87035)">
				<path id="path180" inkscape:connector-curvature="0" fill="#15366F" d="M47.9-477.6c-17.6,0-29.6-13.1-29.6-31.1
					c0-20.6,10.7-29.1,27.2-29.1c17.2,0,29.6,13.1,29.6,31.2C75.1-486.7,64.5-477.6,47.9-477.6 M46.6-525.2
					c-8.5,0-12.9,6.1-12.9,17.9c0,11.9,6.5,17,13.2,17c8.7,0,12.8-6.1,12.8-17.3C59.7-519.2,54-525.2,46.6-525.2"/>
			</g>
			<g id="g182" transform="matrix(0.35277777,0,0,-0.35277777,88.463345,184.60238)">
				<path id="path184" inkscape:connector-curvature="0" fill="#15366F" d="M80.9-475v-4.8H70.7v-11.5h10.1v-46.4h14.8v46.4h13.5
					v11.5H95.7v4.9c0,7.7,2.9,11.1,9.4,11.1c2.2,0,4.9-0.2,7.2-1.1l1,12.2c-3,0.7-6.3,0.9-9.4,0.9C88.1-451.6,80.9-459.3,80.9-475"
					/>
			</g>
			<g id="g186" transform="matrix(0.35277777,0,0,-0.35277777,93.920287,184.78935)">
				<path id="path188" inkscape:connector-curvature="0" fill="#15366F" d="M135.3-476.8c0,5.6,4.1,9.4,12.9,9.4
					c4.7,0,9.2-0.8,13.5-2.2l1.4,13.3c-4.4,0.9-9.9,1.5-14.2,1.5c-19,0-29.7-9.7-29.7-23.6c0-25.9,33.1-21.2,33.1-36.2
					c0-7.4-6.1-10.3-13.2-10.3c-6.3,0-12.1,1.3-17.1,3.4l-1.6-14.6c5.2-1.4,11.2-2.1,18.2-2.1c18.2,0,30.4,10.8,30.4,25.4
					C169-487.9,135.3-490.8,135.3-476.8"/>
			</g>
			<g id="g190" transform="matrix(0.35277777,0,0,-0.35277777,99.314048,188.56693)">
				<path id="path192" inkscape:connector-curvature="0" fill="#15366F" d="M189.1-514.5c-9.9,0-13.5,6.9-13.5,16.8
					c0,10.7,4.5,17.8,13.4,17.8c3.8,0,7.7-0.9,10.8-2.2l2.3,12.8c-3.7,1.3-8.3,2-12.7,2c-20,0-29.5-13.9-29.5-31.9
					c0-19.7,10-28.1,26.1-28.1c5.6,0,11.8,0.9,16.3,2.7l-2,12.5C197-513.7,193-514.5,189.1-514.5"/>
			</g>
			<g id="g194" transform="matrix(0.35277777,0,0,-0.35277777,102.92134,184.87035)">
				<path id="path196" inkscape:connector-curvature="0" fill="#15366F" d="M225-477.6c-17.6,0-29.6-13.1-29.6-31.1
					c0-20.6,10.7-29.1,27.2-29.1c17.3,0,29.6,13.1,29.6,31.2C252.2-486.7,241.6-477.6,225-477.6 M223.7-525.2
					c-8.5,0-12.9,6.1-12.9,17.9c0,11.9,6.5,17,13.2,17c8.7,0,12.8-6.1,12.8-17.3C236.8-519.2,231.1-525.2,223.7-525.2"/>
			</g>
			<g id="g198" transform="matrix(0.35277777,0,0,-0.35277777,107.9068,188.59342)">
				<path id="path200" inkscape:connector-curvature="0" fill="#15366F" d="M274.7-514.7c-5.1,0-6.9,2.1-6.9,9.6v25.4H282v11.5
					h-14.1v24.3l-14.8-4v-20.3h-10v-11.5h10v-29.4c0-13.5,4-18.2,16.8-18.2c4.1,0,8.9,0.7,12.6,1.6l-1.1,11.8
					C279.4-514.5,277.2-514.7,274.7-514.7"/>
			</g>
			<path id="path202" inkscape:connector-curvature="0" fill="#15366F" d="M210.9,374.3h5.3v-30h-5.3V374.3z"/>
			<g id="g212" transform="matrix(0.35277777,0,0,-0.35277777,114.86347,186.46539)">
				<path id="path214" inkscape:connector-curvature="0" fill="#15366F" d="M344.1-493.5c0,12.9-5.4,20.4-23.3,20.4
					c-7.8,0-16.1-1.6-21.9-4l2.4-11.4c5.1,2.2,12.2,4,17.5,4c7.7,0,10.4-3.1,10.4-10.1v-2.1c-20.3,0-33.4-6.4-33.4-20.2
					c0-9.4,6.1-16.5,16.5-16.5c8.2,0,15,4.2,18.1,10.2v-9h14.2c-0.4,4.8-0.5,10.3-0.5,14.9V-493.5z M329.2-508.1c0-7-4.9-14-12.1-14
					c-4.3,0-7,3-7,6.8c0,5,4.1,8.7,19.1,8.7V-508.1z"/>
			</g>
			<g id="g216" transform="matrix(0.35277777,0,0,-0.35277777,118.2259,184.88386)">
				<path id="path218" inkscape:connector-curvature="0" fill="#15366F" d="M377.6-477.8c-8.9,0-15.3-4.3-19-10.4v9.2h-14.1v-57.9
					h14.9v28c0,10.1,5.9,18.7,13.4,18.7c5.6,0,7.2-3.6,7.2-9.5v-37.1h14.8v40.7C394.8-486,390.6-477.8,377.6-477.8"/>
			</g>
			<g id="g220" transform="matrix(0.35277777,0,0,-0.35277777,123.214,182.84914)">
				<path id="path222" inkscape:connector-curvature="0" fill="#15366F" d="M427.3-457.5v-26.6c-2.6,0.4-4.9,0.5-7.3,0.5
					c-19.2,0-30.7-13.5-30.7-33.1c0-16.5,7-27.1,21.1-27.1c8.5,0,14.6,4.2,17.8,10.1v-8.8h13.9v85.1H427.3z M427.3-512.5
					c0-9.9-4.7-19-12.5-19c-6.8,0-9.9,5.6-9.9,16.4c0,14.3,6.1,19.7,14.6,19.7c2.6,0,5.1-0.3,7.8-0.9V-512.5z"/>
			</g>
		</g>
	</g>
</g>
</svg>
