<?xml version="1.0" encoding="utf-8"?>
<!-- Generator: Adobe Illustrator 22.0.1, SVG Export Plug-In . SVG Version: 6.00 Build 0)  -->
<svg version="1.1" xmlns="http://www.w3.org/2000/svg" xmlns:xlink="http://www.w3.org/1999/xlink" x="0px" y="0px"
	 viewBox="0 0 520 551.9" style="enable-background:new 0 0 520 551.9;" xml:space="preserve">
<g id="colour">
</g>
<g id="Matte_Varnish">
	<path style="fill:#4A4A49;" d="M518.5,291.4c-0.4,9.9-1.5,19.7-3.1,29.3c-0.5,2.6-0.9,4.9-1.3,7.3l0,0.2l-1.5,7.2
		c-0.7,2.8-1.2,5-1.8,7.1l-2.1,7.5l-2.7,8.5c-0.6,1.7-1.1,3.4-1.8,5.2c-1.7,4.8-3.6,9.5-5.3,13.7l0,0.1c-3.7,8.8-8.1,17.7-13,26.5
		c-18.9,33.6-45.9,63.6-78.1,86.8c-31.2,22.5-67.4,38.8-104.7,47.3c-5.2,1.2-9.8,2-14.1,2.8c-5.5,0.9-10,1.5-14.2,2
		c-5.1,0.6-9.8,1-14.3,1.2c-1.8,0.1-3.6,0.2-5.4,0.2l-1.6,0.1c-0.9,0-1.8,0.1-2.8,0.1l-2,0c-0.6,0-1.3,0-1.9,0c-0.3,0-0.6,0-0.9,0
		l-6.9-0.1c-2.3,0-4.6-0.2-6.8-0.3l-0.7,0c-1.3-0.1-2.5-0.2-3.5-0.3l-4.2-0.4c-0.7-0.1-1.5-0.2-2.2-0.3c-1.6-0.2-3.3-0.4-5-0.7
		c-9.7-1.5-19.3-3.7-28.6-6.5c-9.2-2.8-18.3-6.3-27.2-10.2c-8.8-4-17.4-8.5-25.6-13.5c-15.9-9.6-31.3-21.3-45.8-34.8
		c-28.5-26.7-51.5-59.5-66.4-94.8C8,347.2,0.9,307.9,2.3,268.9c0.4-9.6,1.2-19.1,2.4-28.2c0.2-1.7,0.5-3.5,0.8-5.3l0.9-5.7l1.2-6.6
		c0.2-1.1,0.3-1.3,0.3-1.5l0.4-1.9c0.2-0.8,0.3-1.5,0.5-2.2c0.4-1.6,0.7-3.3,1.2-5.1l0.5-1.8c0.4-1.7,0.9-3.5,1.4-5.2l0.1-0.3
		l2.1-6.9c1.3-4.1,2.9-9,4.9-13.9c3.5-9.2,7.6-18,12-26.2c4.3-8.1,9.2-16.2,14.5-24.1c5-7.3,10.6-14.6,16.7-21.8
		c5.6-6.6,11.8-13.2,18.4-19.5c6.7-6.4,13.1-12.1,19.6-17.2c24.7-19.8,53.2-36,84.6-48.2c28.4-11,57.4-18,86.4-21
		c8-0.7,14.9-1.2,21.2-1.3c6.7-0.2,13.7-0.1,20.8,0.3l0.2,0c7.5,0.5,14.2,1.2,20.3,2.1c7.2,1.1,13.6,2.4,19.8,3.9
		c6.6,1.7,13,3.6,18.9,5.7c1.1,0.4,2.1,0.8,3.2,1.2l3.9,1.5l2.2,0.9c0.4,0.2,0.9,0.4,1.4,0.6c1,0.4,2.1,0.9,3.1,1.4l4.2,2
		c0.8,0.4,1.4,0.7,2.1,1l6.3,3.4c3,1.6,5.7,3.3,8,4.7c5.8,3.6,10.7,7.1,15.2,10.7c9.7,7.6,18.3,16.3,25.4,25.7
		c7.1,9.3,12.8,19.4,17,29.8c3.8,9.5,6.6,19.7,8.2,30.2c0.6,4.2,1.1,8.4,1.4,12.8c8.3,11.4,15.5,23.6,21.6,36.2
		c8.3,17.2,14.4,35.4,18.3,54.1C517.8,252.4,519.4,271.9,518.5,291.4z"/>
	<linearGradient id="SVGID_1_" gradientUnits="userSpaceOnUse" x1="251.4757" y1="182.3721" x2="427.1051" y2="663.4644">
		<stop  offset="0" style="stop-color:#FBC052"/>
		<stop  offset="5.913980e-02" style="stop-color:#B37E34"/>
		<stop  offset="0.1237" style="stop-color:#FBC052"/>
		<stop  offset="0.1613" style="stop-color:#F7D888"/>
		<stop  offset="0.1935" style="stop-color:#B37E34"/>
		<stop  offset="0.2581" style="stop-color:#FBC052"/>
		<stop  offset="0.3333" style="stop-color:#FBC052"/>
		<stop  offset="0.4669" style="stop-color:#F7D888"/>
		<stop  offset="0.5309" style="stop-color:#B37E34"/>
		<stop  offset="0.5737" style="stop-color:#FBC052"/>
		<stop  offset="0.5835" style="stop-color:#F7D888"/>
		<stop  offset="0.6352" style="stop-color:#F7D888"/>
		<stop  offset="0.6791" style="stop-color:#FBC052"/>
		<stop  offset="0.7258" style="stop-color:#FBC052"/>
		<stop  offset="0.8441" style="stop-color:#B37E34"/>
		<stop  offset="0.8817" style="stop-color:#FBC052"/>
	</linearGradient>
	<path style="fill:url(#SVGID_1_);" d="M295.8,154.6c-10.4,7.1-21.7,21.8-33.9,44.1v-47.7h-48v314.7h53.3V301
		c0-22.5,3-43.3,8.9-62.2c3.9-12.4,10.6-22.2,19.9-29.2c9.3-7,19.7-10.5,31.4-10.5c13,0,26.1,3.9,39.1,11.6l18.4-49.5
		C366.2,149.7,348,144,330,144C317.5,144,306.1,147.5,295.8,154.6z"/>
	<linearGradient id="SVGID_2_" gradientUnits="userSpaceOnUse" x1="199.1588" y1="117.2698" x2="463.6746" y2="841.8439">
		<stop  offset="0" style="stop-color:#FBC052"/>
		<stop  offset="5.913980e-02" style="stop-color:#B37E34"/>
		<stop  offset="0.1237" style="stop-color:#FBC052"/>
		<stop  offset="0.1613" style="stop-color:#F7D888"/>
		<stop  offset="0.1935" style="stop-color:#B37E34"/>
		<stop  offset="0.2581" style="stop-color:#FBC052"/>
		<stop  offset="0.3333" style="stop-color:#FBC052"/>
		<stop  offset="0.4669" style="stop-color:#F7D888"/>
		<stop  offset="0.5309" style="stop-color:#B37E34"/>
		<stop  offset="0.5737" style="stop-color:#FBC052"/>
		<stop  offset="0.5835" style="stop-color:#F7D888"/>
		<stop  offset="0.6352" style="stop-color:#F7D888"/>
		<stop  offset="0.6791" style="stop-color:#FBC052"/>
		<stop  offset="0.7258" style="stop-color:#FBC052"/>
		<stop  offset="0.8441" style="stop-color:#B37E34"/>
		<stop  offset="0.8817" style="stop-color:#FBC052"/>
	</linearGradient>
	<path style="fill:url(#SVGID_2_);" d="M485.3,238.3c-3.4-17.1-8.7-33.5-15.8-48.9c-5.7-12.3-12.5-23.8-20.2-34.5
		c0-6.6-0.6-13.4-1.7-20.5c-1.4-8.3-3.7-17-7.2-25.5c-6.9-17.2-19-33.8-35.6-46.8c-8.2-6.6-17.6-12.3-27.5-17.2
		c-5.1-2.5-10.3-4.6-15.7-6.5c-5.4-1.9-11-3.5-16.8-4.8c-23-5.4-48.3-6.1-74.1-2.8c-25.9,3.4-52.4,10.6-78.6,21.9
		c-26.1,11.3-52,26.5-75.6,46.5c-5.9,5-11.6,10.3-17.2,15.9c-5.6,5.6-10.9,11.5-16,17.8c-5.1,6.2-9.9,12.8-14.4,19.6
		c-4.5,6.9-8.7,14-12.5,21.4C52.4,181.3,49,189,46,196.9c-0.8,2-1.5,4-2.2,6c-0.7,2-1.4,4-2,6.1c-0.6,2.1-1.2,4.1-1.8,6.2
		c-0.5,2.1-1.1,4.2-1.6,6.2c-0.5,2.1-1,4.2-1.4,6.3l-0.3,1.6c-0.1,0.4-0.1,0.3-0.2,1l-0.1,0.7l-0.5,2.9l-0.5,2.9l-0.1,0.7l-0.1,0.8
		l-0.3,1.6c-0.3,2.1-0.7,4.3-1,6.4c-1.2,8.4-1.9,16.8-2.3,25.3c-1.5,34,3.9,69.1,16.6,101.6c12.6,32.5,32.1,62.2,56.5,86.6
		c12.2,12.2,25.6,23.1,40.2,32.3c7.2,4.6,14.8,8.8,22.5,12.4c7.8,3.6,15.8,6.8,23.9,9.4c8.2,2.6,16.6,4.6,25.1,5.9
		c8.5,1.4,17.2,2,25.7,2c17.3,0.1,34.5-1.9,51.5-5.8c33.9-7.7,66.6-22.8,95.2-43.9c28.6-21.1,53.1-48.4,70.6-79.7
		c4.3-7.8,8.3-15.9,11.8-24.1c1.7-4.1,3.4-8.3,4.9-12.5c0.8-2.1,1.5-4.2,2.2-6.3l0.6-1.8l0.5-1.5l0.9-3c0.1-0.5,0.3-1,0.5-1.6
		l0.5-1.7l0.9-3.4c0.6-2.2,1.1-4.3,1.6-6.5l1.4-6.5c0.4-2.2,0.8-4.4,1.2-6.6c1.5-8.8,2.5-17.6,2.9-26.5
		C489.9,273.1,488.6,255.4,485.3,238.3z M450.3,287.7c-0.8,7.5-2,15-3.4,22.4l-1.1,5.6l-1.3,5.5l-1.3,5.5l-0.7,2.6l-0.3,1.3
		c-0.1,0.4-0.2,0.9-0.4,1.4l-1.6,5.7c-0.6,1.8-1.1,3.7-1.7,5.5c-1.2,3.6-2.4,7.3-3.8,10.9c-2.7,7.2-5.6,14.3-8.9,21.4
		c-13.1,28.1-30.8,54.9-53.3,78.1c-11.3,11.5-23.8,22.2-37.4,31.2c-13.7,9.1-28.5,16.7-44.2,22.1c-15.7,5.4-32.2,8.7-48.9,9.4
		c-16.7,0.8-33.4-1.6-49.2-6.9c-7.9-2.6-15.6-5.9-22.9-9.8c-7.3-3.9-14.3-8.4-20.9-13.4c-13.2-9.9-24.7-21.9-34.4-34.9
		c-4.8-6.5-9.3-13.3-13.2-20.3c-3.9-7-7.5-14.2-10.6-21.5c-6.2-14.6-10.7-29.7-13.8-44.9c-1.6-7.6-2.8-15.2-3.7-22.7
		c-0.9-7.6-1.5-15.1-1.8-22.7c-0.6-15.1-0.2-30,1.3-44.7c0.2-1.8,0.4-3.7,0.6-5.5c0.2-1.8,0.4-3.7,0.7-5.5c0.3-1.8,0.5-3.7,0.7-5.5
		c0.3-1.8,0.6-3.6,0.8-5.4c0.6-3.6,1.1-6.8,1.9-10.8l0.6-2.9l0.1-0.7c0-0.1,0.1-0.4,0.1-0.4l0.3-1.3c0.4-1.7,0.7-3.4,1.1-5.1
		c1.6-6.8,3.6-13.5,5.9-20.1c2.3-6.6,4.8-13.1,7.8-19.4c2.9-6.3,6-12.6,9.4-18.6c3.4-6.1,7.1-12,10.9-17.7c3.8-5.8,8-11.4,12.2-16.8
		c4.3-5.5,8.7-10.7,13.4-15.8c37-40.8,84.8-70.3,133.3-81.6c24.2-5.7,48.7-6.8,71.1-2.6c5.6,1.1,11.1,2.4,16.4,4.1
		c5.3,1.8,10.4,3.7,15.2,6.1c9.8,4.7,18.7,10.5,26.4,17c7.7,6.6,14.4,13.8,19.7,21.6c5.3,7.7,9.4,15.9,12.3,24
		c3.9,11,6,21.8,6.8,32.1c-9.6-11.5-20.3-21.7-31.8-30.4c-12.7-9.5-26.4-17.1-40.7-22.6c-14.3-5.5-29.1-8.7-43.8-10
		c-29.5-2.4-58.5,2.6-84.5,12.6c-26.1,10-49.1,25.1-68.4,42.6c-19.3,17.6-34.8,37.5-46.7,58.1c-11.9,20.6-20.4,41.7-25.9,62.2
		c-2.8,10.2-4.8,20.3-6.2,30.1c-1.4,9.8-2.1,19.4-2.2,28.5c-0.3,18.4,1.9,35.2,5.5,50c3.6,14.8,8.7,27.5,14.2,37.9
		c5.4,10.4,11.1,18.7,16.1,25c5,6.3,9.3,10.8,12.2,13.7c1.5,1.5,2.6,2.5,3.4,3.2c0.8,0.7,1.2,1.1,1.2,1.1l0.8-0.7c0,0-0.3-0.4-1-1.2
		c-0.7-0.8-1.7-2-2.9-3.6c-2.5-3.2-6.3-8-10.5-14.6c-2.1-3.3-4.4-7.1-6.7-11.3c-2.3-4.2-4.6-9-6.8-14.2
		c-4.4-10.4-8.5-22.8-11.1-37.1c-2.6-14.3-3.9-30.3-2.9-47.8c0.9-17.4,4-36.2,9.6-55.5c5.7-19.3,14-39.3,25.2-59
		c11.2-19.7,25.2-39.1,42.6-56.9c17.4-17.7,38.4-33.8,63.1-44.9c12.3-5.5,25.5-9.7,39.3-12.2c13.8-2.4,28.1-3.2,42.4-1.8
		c14.3,1.4,28.6,5,42,11c13.4,6,25.8,14.5,36.5,24.8c10.7,10.3,19.7,22.5,26.8,35.6c3.9,7.3,7.3,14.8,10.1,22.6
		c-0.9,6.3-2.1,12.2-3.4,17.6c-2.6,11-5.7,20.2-8.5,27.5c-1.4,3.7-2.7,6.9-3.9,9.6c-1.2,2.7-2.3,5.1-3.2,6.9
		c-0.9,1.8-1.6,3.2-2.1,4.2c-0.5,0.9-0.7,1.4-0.7,1.4l0.9,0.6c0,0,0.3-0.4,1-1.2c0.7-0.8,1.7-2,2.9-3.7c2.5-3.3,6-8.5,9.7-15.6
		c3.8-7.2,7.8-16.3,11.1-27.7c0.4-1.3,0.7-2.6,1.1-3.9c0.3,1.2,0.7,2.4,1,3.6c1.8,7.3,3.3,14.6,4.3,22.1c1.1,7.4,1.8,14.9,2.2,22.4
		C452.4,257.6,451.9,272.7,450.3,287.7z"/>
	<g>
	</g>
	<g>
	</g>
	<g>
	</g>
	<g>
	</g>
	<g>
	</g>
	<g>
	</g>
</g>
</svg>
