<?xml version="1.0" encoding="utf-8"?>
<!-- Generator: Adobe Illustrator 22.0.1, SVG Export Plug-In . SVG Version: 6.00 Build 0)  -->
<svg version="1.1" id="Layer_1" xmlns="http://www.w3.org/2000/svg" xmlns:xlink="http://www.w3.org/1999/xlink" x="0px" y="0px"
	 viewBox="0 0 150 43.3" enable-background="new 0 0 150 43.3" xml:space="preserve">
<path fill="#424241" d="M0.4,34.8c0,4.1,3.3,7.4,7.4,7.4h134.3c4.1,0,7.4-3.3,7.4-7.4V9.5c0-4.1-3.3-7.4-7.4-7.4H7.8
	c-4.1,0-7.4,3.3-7.4,7.4V34.8z"/>
<path fill="#AE8C41" d="M12.6,37.2V15H16v3.3c0.9-1.5,1.6-2.6,2.4-3.1c0.7-0.5,1.5-0.7,2.4-0.7c1.2,0,2.6,0.4,3.9,1.2l-1.3,3.5
	c-0.9-0.6-1.8-0.8-2.8-0.8c-0.8,0-1.5,0.2-2.2,0.7s-1.1,1.1-1.4,2c-0.4,1.3-0.6,2.8-0.6,4.4v11.6H12.6L12.6,37.2z"/>
<path fill="#AE8C41" d="M27,37.2V6.6h3.8v11c1.8-2,4-3,6.7-3c1.6,0,3.1,0.3,4.3,1c1.2,0.7,2,1.5,2.6,2.7c0.5,1.1,0.8,2.8,0.8,5v14
	h-3.8V23.2c0-1.9-0.4-3.3-1.2-4.1c-0.8-0.9-2-1.2-3.4-1.2c-1.1,0-2.2,0.3-3.1,0.9c-1.1,0.6-1.8,1.3-2.2,2.3s-0.6,2.4-0.6,4.1v12.1
	H27z"/>
<path fill="#AE8C41" d="M48.2,26.1c0-4.1,1.1-7.2,3.4-9.1c2-1.6,4.2-2.4,6.9-2.4c3,0,5.5,1,7.5,2.9c2,2,2.9,4.7,2.9,8.2
	c0,2.9-0.4,5.1-1.2,6.7c-0.8,1.6-2.1,2.9-3.8,3.8c-1.6,0.9-3.4,1.4-5.4,1.4c-3.1,0-5.6-1-7.5-2.9C49.1,32.7,48.2,29.9,48.2,26.1z
	 M52.1,26.1c0,2.9,0.6,5,1.9,6.4c1.2,1.4,2.8,2.1,4.7,2.1c1.9,0,3.4-0.7,4.6-2.1c1.2-1.4,1.9-3.6,1.9-6.5c0-2.7-0.6-4.8-1.9-6.2
	c-1.3-1.4-2.8-2.1-4.6-2.1c-1.9,0-3.4,0.7-4.7,2.1C52.7,21.1,52.1,23.3,52.1,26.1z"/>
<path fill="#AE8C41" d="M72.3,37.2V6.6h3.8v17.4l8.9-9.1h4.8l-8.5,8.2l9.3,13.9h-4.6l-7.3-11.3l-2.7,2.5v8.8H72.3L72.3,37.2z"/>
<path fill="#AE8C41" d="M107.8,30l3.9,0.5c-0.6,2.3-1.8,4-3.3,5.3c-1.6,1.2-3.8,1.9-6.4,1.9c-3.3,0-5.8-1-7.7-2.9
	c-2-2-2.9-4.8-2.9-8.4c0-3.8,1-6.6,2.9-8.6c2-2,4.4-3.1,7.5-3.1c2.9,0,5.4,1,7.3,3s2.9,4.8,2.9,8.6c0,0.2,0,0.6,0,1H95.3
	c0.2,2.4,0.8,4.3,2,5.6c1.2,1.3,2.8,2,4.6,2c1.4,0,2.6-0.3,3.5-1.1C106.4,32.8,107.2,31.6,107.8,30z M95.5,24h12.4
	c-0.2-1.9-0.7-3.3-1.4-4.2c-1.2-1.5-2.7-2.2-4.6-2.2c-1.7,0-3.2,0.6-4.3,1.7C96.3,20.5,95.5,22,95.5,24z"/>
<path fill="#AE8C41" d="M123.5,33.9l0.6,3.3c-1.1,0.2-2,0.3-2.9,0.3c-1.4,0-2.4-0.2-3.2-0.7c-0.7-0.5-1.2-1-1.5-1.7
	c-0.3-0.7-0.5-2.2-0.5-4.4V18h-2.7V15h2.8V7.3h3.8V15h3.8V18h-3.8v13c0,1.1,0.1,1.8,0.2,2c0.2,0.3,0.3,0.6,0.7,0.7
	c0.3,0.2,0.7,0.2,1.2,0.2C122.3,34,122.9,33.9,123.5,33.9z"/>
<path fill="#AE8C41" d="M135.4,33.9l0.6,3.3c-1.1,0.2-2,0.3-2.9,0.3c-1.4,0-2.4-0.2-3.2-0.7c-0.7-0.5-1.2-1-1.5-1.7
	c-0.3-0.7-0.5-2.2-0.5-4.4V18h-2.8V15h2.8V7.3h3.8V15h3.8V18h-3.8v13c0,1.1,0.1,1.8,0.2,2c0.2,0.3,0.3,0.6,0.7,0.7
	c0.3,0.2,0.7,0.2,1.2,0.2C134.2,34,134.8,33.9,135.4,33.9z"/>
</svg>
