<?xml version="1.0" encoding="utf-8"?>
<!-- Generator: Adobe Illustrator 22.0.1, SVG Export Plug-In . SVG Version: 6.00 Build 0)  -->
<svg version="1.1" id="svg2" xmlns:svg="http://www.w3.org/2000/svg"
	 xmlns="http://www.w3.org/2000/svg" xmlns:xlink="http://www.w3.org/1999/xlink" x="0px" y="0px" viewBox="0 0 100 82.5"
	 style="enable-background:new 0 0 100 82.5;" xml:space="preserve">
<g id="rect2160">
	<path style="fill:#F1072C;" d="M90.5,79.2h-81c-3.4,0-6.1-2.7-6.1-6.1V9.5c0-3.4,2.7-6.1,6.1-6.1h81c3.4,0,6.1,2.7,6.1,6.1v63.6
		C96.6,76.4,93.9,79.2,90.5,79.2z M9.5,6.8C8,6.8,6.8,8,6.8,9.5v63.6c0,1.5,1.2,2.7,2.7,2.7h81c1.5,0,2.7-1.2,2.7-2.7V9.5
		c0-1.5-1.2-2.7-2.7-2.7H9.5z"/>
</g>
<g id="path4206">
	<path style="fill:#F1072C;" d="M84,72.5H40.1c-4.7,0-3.8-20.8-8.6-20.8h-1.8c-1.5,0-2.6-1.2-2.6-2.6v-8.4c0-1.5,1.2-2.6,2.6-2.6
		c1.5,0,1.4,0,2.8,0c1.5,0,2.6-1.2,2.6-2.6V28c0-1.5-1.2-2.6-2.6-2.6h-7.3v43.8c0,1.9-1.5,3.4-3.4,3.4s-6.5,0-8.4,0S10,71.1,10,69.2
		V13.4c0-1.9,1.5-3.4,3.4-3.4s26.8,0,30.1,0s6,2.7,6,6v22.1c0,3.3-2.7,5.9-6,5.9h-1.4v2.2c8.7,0,6.2,11.3,10.1,11.3h20.2
		c1.5,0,2.6-1.2,2.6-2.6v-3.5c0-1.5-1.2-2.6-2.6-2.6c-1.5,0-6.3,0-10.8,0s-8.2-3.7-8.2-8.2s0-21.4,0-24.7S56,10,59.3,10
		c3.3,0,25.2,0,27.1,0s3.4,1.5,3.4,3.4s0,6.4,0,8.3s-1.5,3.4-3.4,3.4s-14.5,0-15.9,0c-1.5,0-2.6,1.2-2.6,2.6v3.5
		c0,1.5,1.2,2.6,2.6,2.6c1.5,0,6.6,0,11.1,0s8.2,3.7,8.2,8.2s0,21.4,0,24.6C89.9,69.9,87.3,72.5,84,72.5z"/>
</g>
</svg>
