<svg width="279" height="77" xmlns="http://www.w3.org/2000/svg">
  <g fill="none" fill-rule="evenodd">
    <path stroke="#E3E3E3" fill="#FFF" d="M-62-79h403v280H-62z"/>
    <path d="M177.6333 25.2758c-3.7894-4.1348-8.5158-6.2503-14.069-6.2503-5.3465 0-10.6516 3.7227-13.9174 7.4042l.0138-6.8822-9.9765-.0137-.1102 56.4447v.7418l10.0315.0137.0414-17.6518c3.0315 3.393 7.8268 5.3848 13.1595 5.3986 5.8702 0 10.8033-2.088 14.6754-6.1953 3.8996-4.1348 5.8839-9.973 5.8977-16.6628.0137-6.841-1.9154-12.3357-5.7462-16.3469zm-16.4666 3.0496c3.4035 0 6.2835 1.2775 8.5571 3.7914 2.3426 2.4314 3.5414 5.6183 3.5277 9.4784-.0139 3.8875-1.1714 7.3767-3.569 9.918-2.2874 2.4314-5.1536 3.6677-8.5572 3.6677-3.3484 0-6.1457-1.2226-8.5434-3.6952-2.3838-2.555-3.5413-6.0305-3.5413-9.9317.0138-3.86 1.2126-7.047 3.569-9.4785 2.37-2.5275 5.1673-3.7501 8.5295-3.7501h.0276zM188.4641 27.9545l-.0413 23.8197c-.0138 5.1376 1.4055 8.8053 4.189 10.8933 1.7362 1.305 3.941 1.9644 6.5591 1.9644 2.0118 0 5.1674-.8105 5.1674-.8105l-.8957-8.6817s-2.3012.7418-3.4174-.055c-1.061-.7555-1.5846-2.3764-1.5846-4.8078l.0413-22.3224 9.2875.0137.0138-8.2833-9.2875-.0137.0276-11.8961-10.0178-.0138-.0276 11.8961-8.4056-.0137 8.3918 8.3108zM106.241 7.1294h-49.4l-.0138 9.863h19.7463l-.0827 46.046v.9066l10.445.0138-.0414-46.9526 19.3466-.0137z" fill="#262D3D"/>
    <path d="M53.0378 32.3228L38.1696 17.4595c-.1378-.1373-.2618-.261-.3858-.3709L20.7384.055l-7.51 7.4592 10.9824 10.9757L.1102 42.4331l14.8683 14.8496c.2067.206.4134.412.6063.5906l16.9351 16.9238 7.4135-7.3629-11.0788-11.0719 24.1832-24.0395zM22.1301 48.1751a1.0873 1.0873 0 01-.6614 0c-.2205-.0687-.3996-.1648-.7992-.5632l-4.3682-4.3683c-.3858-.3846-.496-.577-.565-.7967a1.0776 1.0776 0 010-.6594c.069-.2198.1654-.3984.565-.7967L30.0672 27.295c.3858-.3846.5787-.4945.7992-.5495a1.0873 1.0873 0 01.6614 0c.2205.0687.3996.1649.7992.5633l4.3682 4.3683c.3858.3846.496.577.5512.7967a1.0776 1.0776 0 010 .6594c-.069.2198-.1654.3984-.565.7967L22.9155 47.6257c-.372.3846-.565.4807-.7854.5494z" fill="#204ECF"/>
    <path d="M129.4184 25.5368c-4.0926-4.2172-9.6596-6.5387-15.3643-6.3739-5.7737 0-10.8584 2.0193-15.1163 6.0167-4.2992 4.025-6.4902 9.6158-6.504 16.6079-.0138 6.992 2.1634 12.583 6.4489 16.6216 4.2579 4.0111 9.3564 6.058 15.13 6.0717.2205.0137.441.0137.6615.0137 5.4016 0 10.748-2.3078 14.689-6.319 2.88-2.9534 6.325-8.1734 6.3387-16.3056.0138-8.1322-3.4036-13.366-6.2835-16.3331m-3.1554 16.3194c-.014 4.0524-1.2128 7.4041-3.5829 9.9592-2.3563 2.5413-5.2914 3.8326-8.7225 3.8326-3.3622-.0138-6.2697-1.305-8.626-3.8738-2.3012-2.5001-3.4725-5.8656-3.4725-9.973 0-4.1073 1.185-7.459 3.5-9.9592 2.3563-2.5413 5.2638-3.8326 8.6399-3.8326 3.4173 0 6.3524 1.305 8.7087 3.8738 2.37 2.555 3.569 5.9069 3.5553 9.973M219.1652 34.9878c0-2.5414 1.3366-8.1323 8.7225-8.1323 2.6181 0 4.1063.8792 5.3603 1.9232 1.2126 1.0028 1.8189 3.4754 1.8189 5.5222v.9616l-12.195 1.8957c-9.6595 1.4698-15.199 6.6486-15.2266 14.2314-.0137 3.9287 1.4194 7.2942 4.1478 9.7669 2.687 2.4314 6.3662 3.7226 10.7067 3.7364 5.4706 0 9.5769-1.9644 12.512-6.0168.0137 1.7171.0137 3.448.0137 5.0552h10.1694l.069-29.1221c.0137-4.753-1.5434-9.3548-4.6163-11.8824-3.0315-2.4864-7-3.7639-12.7461-3.7776h-.0827c-4.382 0-9.0257 1.1539-12.1537 3.86-3.6791 3.1732-5.4843 8.201-5.4843 12.0885l8.9844-.11zm4.6161 21.1684c-3.6102-.0137-5.9528-2.0605-5.939-5.2062.0138-3.2694 2.3012-5.1788 7.193-6.003l10.0178-1.6897v.0962c-.0276 7.5415-4.6437 12.8027-11.2304 12.8027h-.0414zM250.0591 7.8025l-.0964 55.8266v.2473l8.998.0274.0965-55.8403v-.2472zM264.2384 56.647c0-2.0164.6935-3.7447 2.1382-5.185 1.4448-1.4403 3.1786-2.1604 5.1723-2.1604 2.0227 0 3.7854.7201 5.2013 2.1604 1.4447 1.4403 2.1671 3.1686 2.1671 5.185 0 2.0453-.7224 3.7448-2.1671 5.1563-1.4448 1.4403-3.1786 2.1316-5.2013 2.1316-2.0226 0-3.7564-.6913-5.1723-2.1316-1.4158-1.4115-2.1382-3.111-2.1382-5.1563zm1.2136 0c0 1.6996.5779 3.1687 1.7626 4.3785 1.1847 1.181 2.6295 1.786 4.3632 1.786 1.7049 0 3.1497-.605 4.3344-1.786 1.1847-1.2098 1.7915-2.6501 1.7915-4.3785 0-1.7283-.6068-3.1686-1.7915-4.3496-1.1847-1.2099-2.6295-1.8148-4.3344-1.8148-1.7048 0-3.1496.605-4.3343 1.8148-1.1847 1.181-1.7915 2.6213-1.7915 4.3496zm7.8596 4.004l-1.965-3.4854h-1.3291v3.4855h-1.2136v-8.008h3.2652c1.6181 0 2.5717.9505 2.5717 2.2756 0 1.1234-.838 1.9588-1.965 2.1892l1.9939 3.5432h-1.3581zm-3.2941-6.9422v2.4485h1.8782c1.0402 0 1.5604-.4032 1.5604-1.2098 0-.8354-.5202-1.2387-1.5604-1.2387h-1.8782z" fill="#262D3D"/>
  </g>
</svg>
